<?xml version="1.0" encoding="utf-8"?>
<!-- Generator: Adobe Illustrator 19.0.0, SVG Export Plug-In . SVG Version: 6.00 Build 0)  -->
<svg version="1.1" id="Layer_1" xmlns="http://www.w3.org/2000/svg" xmlns:xlink="http://www.w3.org/1999/xlink" x="0px" y="0px"
	 viewBox="-237 239 24 24" style="enable-background:new -237 239 24 24;" xml:space="preserve">
<style type="text/css">
	.st0{fill:#FFFFFF;fill-opacity:0;}
	.st1{fill:#FFFFFF;}
</style>
<g>
	<g>
		<rect x="-237" y="239" class="st0" width="24" height="24"/>
		<path class="st1" d="M-225,241c-5.5,0-10,4.5-10,10c0,5.5,4.5,10,10,10s10-4.5,10-10C-215,245.5-219.5,241-225,241z M-222,252h-2
			v2c0,0.6-0.4,1-1,1s-1-0.4-1-1v-2h-2c-0.6,0-1-0.4-1-1s0.4-1,1-1h2v-2c0-0.6,0.4-1,1-1s1,0.4,1,1v2h2c0.6,0,1,0.4,1,1
			S-221.4,252-222,252z"/>
	</g>
</g>
</svg>
